<svg xmlns="http://www.w3.org/2000/svg" version="1.1" xmlns:xlink="http://www.w3.org/1999/xlink" xmlns:svgjs="http://svgjs.dev/svgjs" width="1060" height="350" preserveAspectRatio="none" viewBox="0 0 1060 350"><g mask="url(&quot;#SvgjsMask1093&quot;)" fill="none"><rect width="1060" height="350" x="0" y="0" fill="rgba(200, 70, 139, 1)"></rect><path d="M390 263L389 121" stroke-width="8" stroke="url(&quot;#SvgjsLinearGradient1094&quot;)" stroke-linecap="round" class="Up"></path><path d="M671 68L670 -173" stroke-width="8" stroke="url(&quot;#SvgjsLinearGradient1094&quot;)" stroke-linecap="round" class="Up"></path><path d="M1036 149L1035 -82" stroke-width="10" stroke="url(&quot;#SvgjsLinearGradient1095&quot;)" stroke-linecap="round" class="Down"></path><path d="M226 282L225 193" stroke-width="10" stroke="url(&quot;#SvgjsLinearGradient1094&quot;)" stroke-linecap="round" class="Up"></path><path d="M151 206L150 -1" stroke-width="10" stroke="url(&quot;#SvgjsLinearGradient1094&quot;)" stroke-linecap="round" class="Up"></path><path d="M272 198L271 400" stroke-width="10" stroke="url(&quot;#SvgjsLinearGradient1094&quot;)" stroke-linecap="round" class="Up"></path><path d="M30 335L29 455" stroke-width="8" stroke="url(&quot;#SvgjsLinearGradient1095&quot;)" stroke-linecap="round" class="Down"></path><path d="M192 86L191 -21" stroke-width="10" stroke="url(&quot;#SvgjsLinearGradient1095&quot;)" stroke-linecap="round" class="Down"></path><path d="M413 28L412 -176" stroke-width="6" stroke="url(&quot;#SvgjsLinearGradient1095&quot;)" stroke-linecap="round" class="Down"></path><path d="M72 108L71 -61" stroke-width="6" stroke="url(&quot;#SvgjsLinearGradient1095&quot;)" stroke-linecap="round" class="Down"></path><path d="M707 273L706 107" stroke-width="8" stroke="url(&quot;#SvgjsLinearGradient1095&quot;)" stroke-linecap="round" class="Down"></path><path d="M32 296L31 118" stroke-width="6" stroke="url(&quot;#SvgjsLinearGradient1095&quot;)" stroke-linecap="round" class="Down"></path><path d="M549 342L548 202" stroke-width="6" stroke="url(&quot;#SvgjsLinearGradient1095&quot;)" stroke-linecap="round" class="Down"></path><path d="M51 122L50 248" stroke-width="8" stroke="url(&quot;#SvgjsLinearGradient1095&quot;)" stroke-linecap="round" class="Down"></path><path d="M408 198L407 9" stroke-width="8" stroke="url(&quot;#SvgjsLinearGradient1094&quot;)" stroke-linecap="round" class="Up"></path><path d="M1028 16L1027 260" stroke-width="8" stroke="url(&quot;#SvgjsLinearGradient1094&quot;)" stroke-linecap="round" class="Up"></path><path d="M818 22L817 162" stroke-width="8" stroke="url(&quot;#SvgjsLinearGradient1095&quot;)" stroke-linecap="round" class="Down"></path><path d="M361 6L360 137" stroke-width="6" stroke="url(&quot;#SvgjsLinearGradient1094&quot;)" stroke-linecap="round" class="Up"></path><path d="M390 46L389 292" stroke-width="8" stroke="url(&quot;#SvgjsLinearGradient1095&quot;)" stroke-linecap="round" class="Down"></path><path d="M1018 101L1017 12" stroke-width="10" stroke="url(&quot;#SvgjsLinearGradient1095&quot;)" stroke-linecap="round" class="Down"></path><path d="M498 254L497 81" stroke-width="6" stroke="url(&quot;#SvgjsLinearGradient1095&quot;)" stroke-linecap="round" class="Down"></path><path d="M525 6L524 162" stroke-width="10" stroke="url(&quot;#SvgjsLinearGradient1094&quot;)" stroke-linecap="round" class="Up"></path><path d="M210 265L209 172" stroke-width="6" stroke="url(&quot;#SvgjsLinearGradient1094&quot;)" stroke-linecap="round" class="Up"></path><path d="M150 149L149 268" stroke-width="6" stroke="url(&quot;#SvgjsLinearGradient1095&quot;)" stroke-linecap="round" class="Down"></path><path d="M166 144L165 -59" stroke-width="6" stroke="url(&quot;#SvgjsLinearGradient1094&quot;)" stroke-linecap="round" class="Up"></path><path d="M617 276L616 365" stroke-width="10" stroke="url(&quot;#SvgjsLinearGradient1094&quot;)" stroke-linecap="round" class="Up"></path><path d="M772 125L771 -73" stroke-width="8" stroke="url(&quot;#SvgjsLinearGradient1095&quot;)" stroke-linecap="round" class="Down"></path></g><defs><mask id="SvgjsMask1093"><rect width="1060" height="350" fill="#ffffff"></rect></mask><linearGradient x1="0%" y1="100%" x2="0%" y2="0%" id="SvgjsLinearGradient1094"><stop stop-color="rgba(253, 237, 237, 0)" offset="0"></stop><stop stop-color="rgba(253, 237, 237, 1)" offset="1"></stop></linearGradient><linearGradient x1="0%" y1="0%" x2="0%" y2="100%" id="SvgjsLinearGradient1095"><stop stop-color="rgba(253, 237, 237, 0)" offset="0"></stop><stop stop-color="rgba(253, 237, 237, 1)" offset="1"></stop></linearGradient></defs></svg>