<svg xmlns="http://www.w3.org/2000/svg" version="1.1" xmlns:xlink="http://www.w3.org/1999/xlink" xmlns:svgjs="http://svgjs.dev/svgjs" width="1800" height="1000" preserveAspectRatio="none" viewBox="0 0 1800 1000"><g mask="url(&quot;#SvgjsMask1056&quot;)" fill="none"><rect width="1800" height="1000" x="0" y="0" fill="rgba(170, 46, 11, 1)"></rect><path d="M1890 1000L0 1000 L0 577.05Q38.04 465.09, 150 503.12Q204.45 467.57, 240 522.01Q356.66 488.67, 390 605.34Q452.74 518.08, 540 580.81Q550.13 500.93, 630 511.06Q692.2 483.26, 720 545.46Q780.74 516.2, 810 576.94Q833.89 510.83, 900 534.72Q937.96 482.68, 990 520.65Q1088.04 468.69, 1140 566.73Q1224.53 501.25, 1290 585.78Q1349.05 494.83, 1440 553.88Q1461.91 485.79, 1530 507.71Q1581.67 469.38, 1620 521.06Q1713.68 524.74, 1710 618.42Q1771.35 589.76, 1800 651.11Q1804.28 565.39, 1890 569.67z" fill="rgba(203, 102, 10, 1)"></path><path d="M1950 1000L0 1000 L0 657.93Q65.82 633.75, 90 699.57Q157.72 677.29, 180 745Q269.33 684.33, 330 773.66Q378.31 671.97, 480 720.28Q545.21 695.49, 570 760.69Q604.92 705.62, 660 740.54Q664.14 654.68, 750 658.82Q800.21 619.03, 840 669.23Q873.82 613.05, 930 646.86Q1055.92 622.78, 1080 748.69Q1086.8 665.49, 1170 672.28Q1231.22 583.5, 1320 644.72Q1454.94 629.66, 1470 764.6Q1484.13 688.73, 1560 702.85Q1620.67 613.53, 1710 674.2Q1748.89 623.1, 1800 661.99Q1862.36 574.35, 1950 636.7z" fill="rgba(237, 180, 26, 1)"></path><path d="M1890 1000L0 1000 L0 820.21Q51.69 721.9, 150 773.6Q207.94 741.54, 240 799.47Q367.08 776.56, 390 903.64Q455.71 819.35, 540 885.06Q526.58 781.63, 630 768.21Q697.5 685.71, 780 753.21Q885.89 709.1, 930 814.99Q992.92 787.91, 1020 850.83Q1052.37 733.2, 1170 765.57Q1238.47 684.04, 1320 752.5Q1420.79 703.29, 1470 804.07Q1536.32 780.39, 1560 846.71Q1632.65 829.36, 1650 902.01Q1705.28 867.29, 1740 922.57Q1793.71 826.28, 1890 879.99z" fill="rgba(249, 208, 98, 1)"></path><path d="M1920 1000L0 1000 L0 899.51Q111.98 861.49, 150 973.47Q260.34 933.81, 300 1044.14Q321.93 916.08, 450 938.01Q465.66 863.67, 540 879.33Q623.41 812.74, 690 896.15Q782.01 898.16, 780 990.17Q850.42 970.59, 870 1041.01Q934.16 955.17, 1020 1019.34Q1031.37 940.71, 1110 952.08Q1175.01 867.1, 1260 932.11Q1310.8 832.91, 1410 883.71Q1469.46 853.17, 1500 912.64Q1595.46 918.1, 1590 1013.56Q1641.18 974.74, 1680 1025.92Q1732.28 988.2, 1770 1040.48Q1774.54 895.02, 1920 899.56z" fill="rgba(252, 232, 142, 1)"></path></g><defs><mask id="SvgjsMask1056"><rect width="1800" height="1000" fill="#ffffff"></rect></mask></defs></svg>