<svg xmlns="http://www.w3.org/2000/svg" version="1.1" xmlns:xlink="http://www.w3.org/1999/xlink" xmlns:svgjs="http://svgjs.dev/svgjs" width="1920" height="3240" preserveAspectRatio="none" viewBox="0 0 1920 3240"><g mask="url(&quot;#SvgjsMask1761&quot;)" fill="none"><rect width="1920" height="3240" x="0" y="0" fill="url(&quot;#SvgjsLinearGradient1762&quot;)"></rect><path d="M39.25 288.83L82.55 313.83L82.55 363.83L39.25 388.83L-4.05 363.83L-4.05 313.83zM39.25 438.83L82.55 463.83L82.55 513.83L39.25 538.83L-4.05 513.83L-4.05 463.83zM39.25 588.83L82.55 613.83L82.55 663.83L39.25 688.83L-4.05 663.83L-4.05 613.83zM82.55 813.83L125.86 838.83L125.86 888.83L82.55 913.83L39.25 888.83L39.25 838.83zM39.25 1038.83L82.55 1063.83L82.55 1113.83L39.25 1138.83L-4.05 1113.83L-4.05 1063.83zM82.55 1113.83L125.86 1138.83L125.86 1188.83L82.55 1213.83L39.25 1188.83L39.25 1138.83zM39.25 1488.83L82.55 1513.83L82.55 1563.83L39.25 1588.83L-4.05 1563.83L-4.05 1513.83zM82.55 1563.83L125.86 1588.83L125.86 1638.83L82.55 1663.83L39.25 1638.83L39.25 1588.83zM82.55 2013.83L125.86 2038.83L125.86 2088.83L82.55 2113.83L39.25 2088.83L39.25 2038.83zM39.25 2538.83L82.55 2563.83L82.55 2613.83L39.25 2638.83L-4.05 2613.83L-4.05 2563.83zM39.25 2988.83L82.55 3013.83L82.55 3063.83L39.25 3088.83L-4.05 3063.83L-4.05 3013.83zM169.16 63.83L212.46 88.83L212.46 138.83L169.16 163.83L125.86 138.83L125.86 88.83zM169.16 213.83L212.46 238.83L212.46 288.83L169.16 313.83L125.86 288.83L125.86 238.83zM169.16 363.83L212.46 388.83L212.46 438.83L169.16 463.83L125.86 438.83L125.86 388.83zM125.86 438.83L169.16 463.83L169.16 513.83L125.86 538.83L82.55 513.83L82.55 463.83zM169.16 663.83L212.46 688.83L212.46 738.83L169.16 763.83L125.86 738.83L125.86 688.83zM169.16 963.83L212.46 988.83L212.46 1038.83L169.16 1063.83L125.86 1038.83L125.86 988.83zM125.86 1188.83L169.16 1213.83L169.16 1263.83L125.86 1288.83L82.55 1263.83L82.55 1213.83zM125.86 1488.83L169.16 1513.83L169.16 1563.83L125.86 1588.83L82.55 1563.83L82.55 1513.83zM169.16 1713.83L212.46 1738.83L212.46 1788.83L169.16 1813.83L125.86 1788.83L125.86 1738.83zM125.86 2088.83L169.16 2113.83L169.16 2163.83L125.86 2188.83L82.55 2163.83L82.55 2113.83zM125.86 2538.83L169.16 2563.83L169.16 2613.83L125.86 2638.83L82.55 2613.83L82.55 2563.83zM125.86 2838.83L169.16 2863.83L169.16 2913.83L125.86 2938.83L82.55 2913.83L82.55 2863.83zM169.16 2913.83L212.46 2938.83L212.46 2988.83L169.16 3013.83L125.86 2988.83L125.86 2938.83zM255.76 63.83L299.06 88.83L299.06 138.83L255.76 163.83L212.46 138.83L212.46 88.83zM212.46 288.83L255.76 313.83L255.76 363.83L212.46 388.83L169.16 363.83L169.16 313.83zM212.46 888.83L255.76 913.83L255.76 963.83L212.46 988.83L169.16 963.83L169.16 913.83zM212.46 1038.83L255.76 1063.83L255.76 1113.83L212.46 1138.83L169.16 1113.83L169.16 1063.83zM212.46 1638.83L255.76 1663.83L255.76 1713.83L212.46 1738.83L169.16 1713.83L169.16 1663.83zM255.76 1713.83L299.06 1738.83L299.06 1788.83L255.76 1813.83L212.46 1788.83L212.46 1738.83zM212.46 1788.83L255.76 1813.83L255.76 1863.83L212.46 1888.83L169.16 1863.83L169.16 1813.83zM212.46 1938.83L255.76 1963.83L255.76 2013.83L212.46 2038.83L169.16 2013.83L169.16 1963.83zM255.76 2463.83L299.06 2488.83L299.06 2538.83L255.76 2563.83L212.46 2538.83L212.46 2488.83zM212.46 2538.83L255.76 2563.83L255.76 2613.83L212.46 2638.83L169.16 2613.83L169.16 2563.83zM212.46 2688.83L255.76 2713.83L255.76 2763.83L212.46 2788.83L169.16 2763.83L169.16 2713.83zM212.46 2838.83L255.76 2863.83L255.76 2913.83L212.46 2938.83L169.16 2913.83L169.16 2863.83zM255.76 3063.83L299.06 3088.83L299.06 3138.83L255.76 3163.83L212.46 3138.83L212.46 3088.83zM299.06 -11.17L342.37 13.83L342.37 63.83L299.06 88.83L255.76 63.83L255.76 13.83zM299.06 138.83L342.37 163.83L342.37 213.83L299.06 238.83L255.76 213.83L255.76 163.83zM299.06 738.83L342.37 763.83L342.37 813.83L299.06 838.83L255.76 813.83L255.76 763.83zM342.37 813.83L385.67 838.83L385.67 888.83L342.37 913.83L299.06 888.83L299.06 838.83zM299.06 888.83L342.37 913.83L342.37 963.83L299.06 988.83L255.76 963.83L255.76 913.83zM299.06 1188.83L342.37 1213.83L342.37 1263.83L299.06 1288.83L255.76 1263.83L255.76 1213.83zM299.06 1338.83L342.37 1363.83L342.37 1413.83L299.06 1438.83L255.76 1413.83L255.76 1363.83zM342.37 1563.83L385.67 1588.83L385.67 1638.83L342.37 1663.83L299.06 1638.83L299.06 1588.83zM299.06 1638.83L342.37 1663.83L342.37 1713.83L299.06 1738.83L255.76 1713.83L255.76 1663.83zM342.37 2013.83L385.67 2038.83L385.67 2088.83L342.37 2113.83L299.06 2088.83L299.06 2038.83zM299.06 2388.83L342.37 2413.83L342.37 2463.83L299.06 2488.83L255.76 2463.83L255.76 2413.83zM342.37 2463.83L385.67 2488.83L385.67 2538.83L342.37 2563.83L299.06 2538.83L299.06 2488.83zM299.06 2688.83L342.37 2713.83L342.37 2763.83L299.06 2788.83L255.76 2763.83L255.76 2713.83zM299.06 2988.83L342.37 3013.83L342.37 3063.83L299.06 3088.83L255.76 3063.83L255.76 3013.83zM342.37 3213.83L385.67 3238.83L385.67 3288.83L342.37 3313.83L299.06 3288.83L299.06 3238.83zM428.97 63.83L472.28 88.83L472.28 138.83L428.97 163.83L385.67 138.83L385.67 88.83zM428.97 213.83L472.28 238.83L472.28 288.83L428.97 313.83L385.67 288.83L385.67 238.83zM385.67 288.83L428.97 313.83L428.97 363.83L385.67 388.83L342.37 363.83L342.37 313.83zM428.97 663.83L472.28 688.83L472.28 738.83L428.97 763.83L385.67 738.83L385.67 688.83zM385.67 738.83L428.97 763.83L428.97 813.83L385.67 838.83L342.37 813.83L342.37 763.83zM428.97 963.83L472.28 988.83L472.28 1038.83L428.97 1063.83L385.67 1038.83L385.67 988.83zM428.97 1263.83L472.28 1288.83L472.28 1338.83L428.97 1363.83L385.67 1338.83L385.67 1288.83zM385.67 1488.83L428.97 1513.83L428.97 1563.83L385.67 1588.83L342.37 1563.83L342.37 1513.83zM428.97 1563.83L472.28 1588.83L472.28 1638.83L428.97 1663.83L385.67 1638.83L385.67 1588.83zM385.67 1638.83L428.97 1663.83L428.97 1713.83L385.67 1738.83L342.37 1713.83L342.37 1663.83zM428.97 1713.83L472.28 1738.83L472.28 1788.83L428.97 1813.83L385.67 1788.83L385.67 1738.83zM385.67 1788.83L428.97 1813.83L428.97 1863.83L385.67 1888.83L342.37 1863.83L342.37 1813.83zM428.97 2313.83L472.28 2338.83L472.28 2388.83L428.97 2413.83L385.67 2388.83L385.67 2338.83zM428.97 2463.83L472.28 2488.83L472.28 2538.83L428.97 2563.83L385.67 2538.83L385.67 2488.83zM428.97 2613.83L472.28 2638.83L472.28 2688.83L428.97 2713.83L385.67 2688.83L385.67 2638.83zM385.67 2838.83L428.97 2863.83L428.97 2913.83L385.67 2938.83L342.37 2913.83L342.37 2863.83zM385.67 2988.83L428.97 3013.83L428.97 3063.83L385.67 3088.83L342.37 3063.83L342.37 3013.83zM472.28 -11.17L515.58 13.83L515.58 63.83L472.28 88.83L428.97 63.83L428.97 13.83zM515.58 63.83L558.88 88.83L558.88 138.83L515.58 163.83L472.28 138.83L472.28 88.83zM472.28 288.83L515.58 313.83L515.58 363.83L472.28 388.83L428.97 363.83L428.97 313.83zM472.28 438.83L515.58 463.83L515.58 513.83L472.28 538.83L428.97 513.83L428.97 463.83zM472.28 738.83L515.58 763.83L515.58 813.83L472.28 838.83L428.97 813.83L428.97 763.83zM515.58 963.83L558.88 988.83L558.88 1038.83L515.58 1063.83L472.28 1038.83L472.28 988.83zM515.58 1113.83L558.88 1138.83L558.88 1188.83L515.58 1213.83L472.28 1188.83L472.28 1138.83zM515.58 1563.83L558.88 1588.83L558.88 1638.83L515.58 1663.83L472.28 1638.83L472.28 1588.83zM515.58 1713.83L558.88 1738.83L558.88 1788.83L515.58 1813.83L472.28 1788.83L472.28 1738.83zM515.58 2013.83L558.88 2038.83L558.88 2088.83L515.58 2113.83L472.28 2088.83L472.28 2038.83zM472.28 2088.83L515.58 2113.83L515.58 2163.83L472.28 2188.83L428.97 2163.83L428.97 2113.83zM515.58 2463.83L558.88 2488.83L558.88 2538.83L515.58 2563.83L472.28 2538.83L472.28 2488.83zM472.28 2538.83L515.58 2563.83L515.58 2613.83L472.28 2638.83L428.97 2613.83L428.97 2563.83zM515.58 2613.83L558.88 2638.83L558.88 2688.83L515.58 2713.83L472.28 2688.83L472.28 2638.83zM602.18 363.83L645.49 388.83L645.49 438.83L602.18 463.83L558.88 438.83L558.88 388.83zM602.18 513.83L645.49 538.83L645.49 588.83L602.18 613.83L558.88 588.83L558.88 538.83zM602.18 1713.83L645.49 1738.83L645.49 1788.83L602.18 1813.83L558.88 1788.83L558.88 1738.83zM558.88 1788.83L602.18 1813.83L602.18 1863.83L558.88 1888.83L515.58 1863.83L515.58 1813.83zM558.88 2388.83L602.18 2413.83L602.18 2463.83L558.88 2488.83L515.58 2463.83L515.58 2413.83zM602.18 2763.83L645.49 2788.83L645.49 2838.83L602.18 2863.83L558.88 2838.83L558.88 2788.83zM558.88 2988.83L602.18 3013.83L602.18 3063.83L558.88 3088.83L515.58 3063.83L515.58 3013.83zM602.18 3063.83L645.49 3088.83L645.49 3138.83L602.18 3163.83L558.88 3138.83L558.88 3088.83zM558.88 3138.83L602.18 3163.83L602.18 3213.83L558.88 3238.83L515.58 3213.83L515.58 3163.83zM645.49 -11.17L688.79 13.83L688.79 63.83L645.49 88.83L602.18 63.83L602.18 13.83zM688.79 63.83L732.09 88.83L732.09 138.83L688.79 163.83L645.49 138.83L645.49 88.83zM688.79 213.83L732.09 238.83L732.09 288.83L688.79 313.83L645.49 288.83L645.49 238.83zM645.49 288.83L688.79 313.83L688.79 363.83L645.49 388.83L602.18 363.83L602.18 313.83zM645.49 438.83L688.79 463.83L688.79 513.83L645.49 538.83L602.18 513.83L602.18 463.83zM688.79 663.83L732.09 688.83L732.09 738.83L688.79 763.83L645.49 738.83L645.49 688.83zM645.49 738.83L688.79 763.83L688.79 813.83L645.49 838.83L602.18 813.83L602.18 763.83zM688.79 813.83L732.09 838.83L732.09 888.83L688.79 913.83L645.49 888.83L645.49 838.83zM645.49 888.83L688.79 913.83L688.79 963.83L645.49 988.83L602.18 963.83L602.18 913.83zM645.49 1338.83L688.79 1363.83L688.79 1413.83L645.49 1438.83L602.18 1413.83L602.18 1363.83zM645.49 1488.83L688.79 1513.83L688.79 1563.83L645.49 1588.83L602.18 1563.83L602.18 1513.83zM645.49 1938.83L688.79 1963.83L688.79 2013.83L645.49 2038.83L602.18 2013.83L602.18 1963.83zM645.49 2538.83L688.79 2563.83L688.79 2613.83L645.49 2638.83L602.18 2613.83L602.18 2563.83zM645.49 2688.83L688.79 2713.83L688.79 2763.83L645.49 2788.83L602.18 2763.83L602.18 2713.83zM688.79 2763.83L732.09 2788.83L732.09 2838.83L688.79 2863.83L645.49 2838.83L645.49 2788.83zM688.79 2913.83L732.09 2938.83L732.09 2988.83L688.79 3013.83L645.49 2988.83L645.49 2938.83zM645.49 2988.83L688.79 3013.83L688.79 3063.83L645.49 3088.83L602.18 3063.83L602.18 3013.83zM688.79 3063.83L732.09 3088.83L732.09 3138.83L688.79 3163.83L645.49 3138.83L645.49 3088.83zM732.09 -11.17L775.39 13.83L775.39 63.83L732.09 88.83L688.79 63.83L688.79 13.83zM775.39 63.83L818.7 88.83L818.7 138.83L775.39 163.83L732.09 138.83L732.09 88.83zM775.39 213.83L818.7 238.83L818.7 288.83L775.39 313.83L732.09 288.83L732.09 238.83zM775.39 363.83L818.7 388.83L818.7 438.83L775.39 463.83L732.09 438.83L732.09 388.83zM775.39 663.83L818.7 688.83L818.7 738.83L775.39 763.83L732.09 738.83L732.09 688.83zM775.39 963.83L818.7 988.83L818.7 1038.83L775.39 1063.83L732.09 1038.83L732.09 988.83zM732.09 1038.83L775.39 1063.83L775.39 1113.83L732.09 1138.83L688.79 1113.83L688.79 1063.83zM775.39 1263.83L818.7 1288.83L818.7 1338.83L775.39 1363.83L732.09 1338.83L732.09 1288.83zM775.39 1413.83L818.7 1438.83L818.7 1488.83L775.39 1513.83L732.09 1488.83L732.09 1438.83zM732.09 1488.83L775.39 1513.83L775.39 1563.83L732.09 1588.83L688.79 1563.83L688.79 1513.83zM732.09 1638.83L775.39 1663.83L775.39 1713.83L732.09 1738.83L688.79 1713.83L688.79 1663.83zM732.09 1788.83L775.39 1813.83L775.39 1863.83L732.09 1888.83L688.79 1863.83L688.79 1813.83zM775.39 2013.83L818.7 2038.83L818.7 2088.83L775.39 2113.83L732.09 2088.83L732.09 2038.83zM732.09 2238.83L775.39 2263.83L775.39 2313.83L732.09 2338.83L688.79 2313.83L688.79 2263.83zM775.39 2613.83L818.7 2638.83L818.7 2688.83L775.39 2713.83L732.09 2688.83L732.09 2638.83zM775.39 2913.83L818.7 2938.83L818.7 2988.83L775.39 3013.83L732.09 2988.83L732.09 2938.83zM732.09 2988.83L775.39 3013.83L775.39 3063.83L732.09 3088.83L688.79 3063.83L688.79 3013.83zM732.09 3138.83L775.39 3163.83L775.39 3213.83L732.09 3238.83L688.79 3213.83L688.79 3163.83zM862 63.83L905.3 88.83L905.3 138.83L862 163.83L818.7 138.83L818.7 88.83zM818.7 138.83L862 163.83L862 213.83L818.7 238.83L775.39 213.83L775.39 163.83zM862 363.83L905.3 388.83L905.3 438.83L862 463.83L818.7 438.83L818.7 388.83zM818.7 438.83L862 463.83L862 513.83L818.7 538.83L775.39 513.83L775.39 463.83zM862 2013.83L905.3 2038.83L905.3 2088.83L862 2113.83L818.7 2088.83L818.7 2038.83zM818.7 2088.83L862 2113.83L862 2163.83L818.7 2188.83L775.39 2163.83L775.39 2113.83zM862 2313.83L905.3 2338.83L905.3 2388.83L862 2413.83L818.7 2388.83L818.7 2338.83zM862 2613.83L905.3 2638.83L905.3 2688.83L862 2713.83L818.7 2688.83L818.7 2638.83zM818.7 2688.83L862 2713.83L862 2763.83L818.7 2788.83L775.39 2763.83L775.39 2713.83zM818.7 2838.83L862 2863.83L862 2913.83L818.7 2938.83L775.39 2913.83L775.39 2863.83zM818.7 2988.83L862 3013.83L862 3063.83L818.7 3088.83L775.39 3063.83L775.39 3013.83zM818.7 3138.83L862 3163.83L862 3213.83L818.7 3238.83L775.39 3213.83L775.39 3163.83zM948.6 363.83L991.91 388.83L991.91 438.83L948.6 463.83L905.3 438.83L905.3 388.83zM905.3 588.83L948.6 613.83L948.6 663.83L905.3 688.83L862 663.83L862 613.83zM948.6 663.83L991.91 688.83L991.91 738.83L948.6 763.83L905.3 738.83L905.3 688.83zM905.3 738.83L948.6 763.83L948.6 813.83L905.3 838.83L862 813.83L862 763.83zM905.3 888.83L948.6 913.83L948.6 963.83L905.3 988.83L862 963.83L862 913.83zM948.6 963.83L991.91 988.83L991.91 1038.83L948.6 1063.83L905.3 1038.83L905.3 988.83zM948.6 1113.83L991.91 1138.83L991.91 1188.83L948.6 1213.83L905.3 1188.83L905.3 1138.83zM948.6 1263.83L991.91 1288.83L991.91 1338.83L948.6 1363.83L905.3 1338.83L905.3 1288.83zM905.3 1338.83L948.6 1363.83L948.6 1413.83L905.3 1438.83L862 1413.83L862 1363.83zM948.6 1413.83L991.91 1438.83L991.91 1488.83L948.6 1513.83L905.3 1488.83L905.3 1438.83zM948.6 2313.83L991.91 2338.83L991.91 2388.83L948.6 2413.83L905.3 2388.83L905.3 2338.83zM948.6 2913.83L991.91 2938.83L991.91 2988.83L948.6 3013.83L905.3 2988.83L905.3 2938.83zM948.6 3213.83L991.91 3238.83L991.91 3288.83L948.6 3313.83L905.3 3288.83L905.3 3238.83zM991.91 138.83L1035.21 163.83L1035.21 213.83L991.91 238.83L948.6 213.83L948.6 163.83zM1035.21 213.83L1078.51 238.83L1078.51 288.83L1035.21 313.83L991.91 288.83L991.91 238.83zM991.91 438.83L1035.21 463.83L1035.21 513.83L991.91 538.83L948.6 513.83L948.6 463.83zM1035.21 813.83L1078.51 838.83L1078.51 888.83L1035.21 913.83L991.91 888.83L991.91 838.83zM1035.21 963.83L1078.51 988.83L1078.51 1038.83L1035.21 1063.83L991.91 1038.83L991.91 988.83zM1035.21 1113.83L1078.51 1138.83L1078.51 1188.83L1035.21 1213.83L991.91 1188.83L991.91 1138.83zM1035.21 1263.83L1078.51 1288.83L1078.51 1338.83L1035.21 1363.83L991.91 1338.83L991.91 1288.83zM991.91 1338.83L1035.21 1363.83L1035.21 1413.83L991.91 1438.83L948.6 1413.83L948.6 1363.83zM991.91 1638.83L1035.21 1663.83L1035.21 1713.83L991.91 1738.83L948.6 1713.83L948.6 1663.83zM1035.21 1863.83L1078.51 1888.83L1078.51 1938.83L1035.21 1963.83L991.91 1938.83L991.91 1888.83zM991.91 1938.83L1035.21 1963.83L1035.21 2013.83L991.91 2038.83L948.6 2013.83L948.6 1963.83zM1035.21 2463.83L1078.51 2488.83L1078.51 2538.83L1035.21 2563.83L991.91 2538.83L991.91 2488.83zM1035.21 2613.83L1078.51 2638.83L1078.51 2688.83L1035.21 2713.83L991.91 2688.83L991.91 2638.83zM991.91 2688.83L1035.21 2713.83L1035.21 2763.83L991.91 2788.83L948.6 2763.83L948.6 2713.83zM1035.21 2763.83L1078.51 2788.83L1078.51 2838.83L1035.21 2863.83L991.91 2838.83L991.91 2788.83zM991.91 3138.83L1035.21 3163.83L1035.21 3213.83L991.91 3238.83L948.6 3213.83L948.6 3163.83zM1035.21 3213.83L1078.51 3238.83L1078.51 3288.83L1035.21 3313.83L991.91 3288.83L991.91 3238.83zM1078.51 -11.17L1121.81 13.83L1121.81 63.83L1078.51 88.83L1035.21 63.83L1035.21 13.83zM1078.51 438.83L1121.81 463.83L1121.81 513.83L1078.51 538.83L1035.21 513.83L1035.21 463.83zM1121.81 663.83L1165.12 688.83L1165.12 738.83L1121.81 763.83L1078.51 738.83L1078.51 688.83zM1078.51 738.83L1121.81 763.83L1121.81 813.83L1078.51 838.83L1035.21 813.83L1035.21 763.83zM1078.51 888.83L1121.81 913.83L1121.81 963.83L1078.51 988.83L1035.21 963.83L1035.21 913.83zM1121.81 963.83L1165.12 988.83L1165.12 1038.83L1121.81 1063.83L1078.51 1038.83L1078.51 988.83zM1121.81 1263.83L1165.12 1288.83L1165.12 1338.83L1121.81 1363.83L1078.51 1338.83L1078.51 1288.83zM1078.51 1788.83L1121.81 1813.83L1121.81 1863.83L1078.51 1888.83L1035.21 1863.83L1035.21 1813.83zM1121.81 1863.83L1165.12 1888.83L1165.12 1938.83L1121.81 1963.83L1078.51 1938.83L1078.51 1888.83zM1078.51 1938.83L1121.81 1963.83L1121.81 2013.83L1078.51 2038.83L1035.21 2013.83L1035.21 1963.83zM1121.81 2013.83L1165.12 2038.83L1165.12 2088.83L1121.81 2113.83L1078.51 2088.83L1078.51 2038.83zM1078.51 2088.83L1121.81 2113.83L1121.81 2163.83L1078.51 2188.83L1035.21 2163.83L1035.21 2113.83zM1121.81 2163.83L1165.12 2188.83L1165.12 2238.83L1121.81 2263.83L1078.51 2238.83L1078.51 2188.83zM1078.51 2238.83L1121.81 2263.83L1121.81 2313.83L1078.51 2338.83L1035.21 2313.83L1035.21 2263.83zM1121.81 2613.83L1165.12 2638.83L1165.12 2688.83L1121.81 2713.83L1078.51 2688.83L1078.51 2638.83zM1121.81 3213.83L1165.12 3238.83L1165.12 3288.83L1121.81 3313.83L1078.51 3288.83L1078.51 3238.83zM1165.12 438.83L1208.42 463.83L1208.42 513.83L1165.12 538.83L1121.81 513.83L1121.81 463.83zM1208.42 963.83L1251.72 988.83L1251.72 1038.83L1208.42 1063.83L1165.12 1038.83L1165.12 988.83zM1165.12 1488.83L1208.42 1513.83L1208.42 1563.83L1165.12 1588.83L1121.81 1563.83L1121.81 1513.83zM1165.12 1638.83L1208.42 1663.83L1208.42 1713.83L1165.12 1738.83L1121.81 1713.83L1121.81 1663.83zM1208.42 1863.83L1251.72 1888.83L1251.72 1938.83L1208.42 1963.83L1165.12 1938.83L1165.12 1888.83zM1208.42 2013.83L1251.72 2038.83L1251.72 2088.83L1208.42 2113.83L1165.12 2088.83L1165.12 2038.83zM1165.12 2388.83L1208.42 2413.83L1208.42 2463.83L1165.12 2488.83L1121.81 2463.83L1121.81 2413.83zM1208.42 2463.83L1251.72 2488.83L1251.72 2538.83L1208.42 2563.83L1165.12 2538.83L1165.12 2488.83zM1208.42 3063.83L1251.72 3088.83L1251.72 3138.83L1208.42 3163.83L1165.12 3138.83L1165.12 3088.83zM1251.72 -11.17L1295.02 13.83L1295.02 63.83L1251.72 88.83L1208.42 63.83L1208.42 13.83zM1295.02 63.83L1338.33 88.83L1338.33 138.83L1295.02 163.83L1251.72 138.83L1251.72 88.83zM1251.72 138.83L1295.02 163.83L1295.02 213.83L1251.72 238.83L1208.42 213.83L1208.42 163.83zM1295.02 213.83L1338.33 238.83L1338.33 288.83L1295.02 313.83L1251.72 288.83L1251.72 238.83zM1251.72 438.83L1295.02 463.83L1295.02 513.83L1251.72 538.83L1208.42 513.83L1208.42 463.83zM1251.72 588.83L1295.02 613.83L1295.02 663.83L1251.72 688.83L1208.42 663.83L1208.42 613.83zM1295.02 663.83L1338.33 688.83L1338.33 738.83L1295.02 763.83L1251.72 738.83L1251.72 688.83zM1295.02 813.83L1338.33 838.83L1338.33 888.83L1295.02 913.83L1251.72 888.83L1251.72 838.83zM1295.02 1263.83L1338.33 1288.83L1338.33 1338.83L1295.02 1363.83L1251.72 1338.83L1251.72 1288.83zM1295.02 1863.83L1338.33 1888.83L1338.33 1938.83L1295.02 1963.83L1251.72 1938.83L1251.72 1888.83zM1251.72 2238.83L1295.02 2263.83L1295.02 2313.83L1251.72 2338.83L1208.42 2313.83L1208.42 2263.83zM1251.72 2538.83L1295.02 2563.83L1295.02 2613.83L1251.72 2638.83L1208.42 2613.83L1208.42 2563.83zM1295.02 2613.83L1338.33 2638.83L1338.33 2688.83L1295.02 2713.83L1251.72 2688.83L1251.72 2638.83zM1251.72 2688.83L1295.02 2713.83L1295.02 2763.83L1251.72 2788.83L1208.42 2763.83L1208.42 2713.83zM1338.33 138.83L1381.63 163.83L1381.63 213.83L1338.33 238.83L1295.02 213.83L1295.02 163.83zM1381.63 213.83L1424.93 238.83L1424.93 288.83L1381.63 313.83L1338.33 288.83L1338.33 238.83zM1338.33 438.83L1381.63 463.83L1381.63 513.83L1338.33 538.83L1295.02 513.83L1295.02 463.83zM1338.33 588.83L1381.63 613.83L1381.63 663.83L1338.33 688.83L1295.02 663.83L1295.02 613.83zM1338.33 1188.83L1381.63 1213.83L1381.63 1263.83L1338.33 1288.83L1295.02 1263.83L1295.02 1213.83zM1338.33 1338.83L1381.63 1363.83L1381.63 1413.83L1338.33 1438.83L1295.02 1413.83L1295.02 1363.83zM1381.63 1413.83L1424.93 1438.83L1424.93 1488.83L1381.63 1513.83L1338.33 1488.83L1338.33 1438.83zM1338.33 1638.83L1381.63 1663.83L1381.63 1713.83L1338.33 1738.83L1295.02 1713.83L1295.02 1663.83zM1381.63 1713.83L1424.93 1738.83L1424.93 1788.83L1381.63 1813.83L1338.33 1788.83L1338.33 1738.83zM1338.33 1788.83L1381.63 1813.83L1381.63 1863.83L1338.33 1888.83L1295.02 1863.83L1295.02 1813.83zM1381.63 1863.83L1424.93 1888.83L1424.93 1938.83L1381.63 1963.83L1338.33 1938.83L1338.33 1888.83zM1338.33 2088.83L1381.63 2113.83L1381.63 2163.83L1338.33 2188.83L1295.02 2163.83L1295.02 2113.83zM1381.63 2163.83L1424.93 2188.83L1424.93 2238.83L1381.63 2263.83L1338.33 2238.83L1338.33 2188.83zM1338.33 2238.83L1381.63 2263.83L1381.63 2313.83L1338.33 2338.83L1295.02 2313.83L1295.02 2263.83zM1381.63 2313.83L1424.93 2338.83L1424.93 2388.83L1381.63 2413.83L1338.33 2388.83L1338.33 2338.83zM1381.63 2463.83L1424.93 2488.83L1424.93 2538.83L1381.63 2563.83L1338.33 2538.83L1338.33 2488.83zM1381.63 2613.83L1424.93 2638.83L1424.93 2688.83L1381.63 2713.83L1338.33 2688.83L1338.33 2638.83zM1338.33 2838.83L1381.63 2863.83L1381.63 2913.83L1338.33 2938.83L1295.02 2913.83L1295.02 2863.83zM1381.63 2913.83L1424.93 2938.83L1424.93 2988.83L1381.63 3013.83L1338.33 2988.83L1338.33 2938.83zM1338.33 2988.83L1381.63 3013.83L1381.63 3063.83L1338.33 3088.83L1295.02 3063.83L1295.02 3013.83zM1338.33 3138.83L1381.63 3163.83L1381.63 3213.83L1338.33 3238.83L1295.02 3213.83L1295.02 3163.83zM1424.93 -11.17L1468.23 13.83L1468.23 63.83L1424.93 88.83L1381.63 63.83L1381.63 13.83zM1468.23 213.83L1511.54 238.83L1511.54 288.83L1468.23 313.83L1424.93 288.83L1424.93 238.83zM1424.93 288.83L1468.23 313.83L1468.23 363.83L1424.93 388.83L1381.63 363.83L1381.63 313.83zM1468.23 363.83L1511.54 388.83L1511.54 438.83L1468.23 463.83L1424.93 438.83L1424.93 388.83zM1424.93 588.83L1468.23 613.83L1468.23 663.83L1424.93 688.83L1381.63 663.83L1381.63 613.83zM1424.93 738.83L1468.23 763.83L1468.23 813.83L1424.93 838.83L1381.63 813.83L1381.63 763.83zM1468.23 813.83L1511.54 838.83L1511.54 888.83L1468.23 913.83L1424.93 888.83L1424.93 838.83zM1468.23 963.83L1511.54 988.83L1511.54 1038.83L1468.23 1063.83L1424.93 1038.83L1424.93 988.83zM1424.93 1038.83L1468.23 1063.83L1468.23 1113.83L1424.93 1138.83L1381.63 1113.83L1381.63 1063.83zM1468.23 1113.83L1511.54 1138.83L1511.54 1188.83L1468.23 1213.83L1424.93 1188.83L1424.93 1138.83zM1424.93 1188.83L1468.23 1213.83L1468.23 1263.83L1424.93 1288.83L1381.63 1263.83L1381.63 1213.83zM1468.23 1563.83L1511.54 1588.83L1511.54 1638.83L1468.23 1663.83L1424.93 1638.83L1424.93 1588.83zM1468.23 2313.83L1511.54 2338.83L1511.54 2388.83L1468.23 2413.83L1424.93 2388.83L1424.93 2338.83zM1424.93 2388.83L1468.23 2413.83L1468.23 2463.83L1424.93 2488.83L1381.63 2463.83L1381.63 2413.83zM1468.23 2463.83L1511.54 2488.83L1511.54 2538.83L1468.23 2563.83L1424.93 2538.83L1424.93 2488.83zM1424.93 2538.83L1468.23 2563.83L1468.23 2613.83L1424.93 2638.83L1381.63 2613.83L1381.63 2563.83zM1468.23 2763.83L1511.54 2788.83L1511.54 2838.83L1468.23 2863.83L1424.93 2838.83L1424.93 2788.83zM1511.54 -11.17L1554.84 13.83L1554.84 63.83L1511.54 88.83L1468.23 63.83L1468.23 13.83zM1554.84 213.83L1598.14 238.83L1598.14 288.83L1554.84 313.83L1511.54 288.83L1511.54 238.83zM1511.54 288.83L1554.84 313.83L1554.84 363.83L1511.54 388.83L1468.23 363.83L1468.23 313.83zM1554.84 963.83L1598.14 988.83L1598.14 1038.83L1554.84 1063.83L1511.54 1038.83L1511.54 988.83zM1511.54 1038.83L1554.84 1063.83L1554.84 1113.83L1511.54 1138.83L1468.23 1113.83L1468.23 1063.83zM1554.84 1563.83L1598.14 1588.83L1598.14 1638.83L1554.84 1663.83L1511.54 1638.83L1511.54 1588.83zM1554.84 2613.83L1598.14 2638.83L1598.14 2688.83L1554.84 2713.83L1511.54 2688.83L1511.54 2638.83zM1511.54 2838.83L1554.84 2863.83L1554.84 2913.83L1511.54 2938.83L1468.23 2913.83L1468.23 2863.83zM1511.54 3138.83L1554.84 3163.83L1554.84 3213.83L1511.54 3238.83L1468.23 3213.83L1468.23 3163.83zM1598.14 438.83L1641.44 463.83L1641.44 513.83L1598.14 538.83L1554.84 513.83L1554.84 463.83zM1641.44 513.83L1684.75 538.83L1684.75 588.83L1641.44 613.83L1598.14 588.83L1598.14 538.83zM1598.14 588.83L1641.44 613.83L1641.44 663.83L1598.14 688.83L1554.84 663.83L1554.84 613.83zM1641.44 813.83L1684.75 838.83L1684.75 888.83L1641.44 913.83L1598.14 888.83L1598.14 838.83zM1598.14 1188.83L1641.44 1213.83L1641.44 1263.83L1598.14 1288.83L1554.84 1263.83L1554.84 1213.83zM1598.14 1338.83L1641.44 1363.83L1641.44 1413.83L1598.14 1438.83L1554.84 1413.83L1554.84 1363.83zM1641.44 1563.83L1684.75 1588.83L1684.75 1638.83L1641.44 1663.83L1598.14 1638.83L1598.14 1588.83zM1598.14 1638.83L1641.44 1663.83L1641.44 1713.83L1598.14 1738.83L1554.84 1713.83L1554.84 1663.83zM1641.44 2013.83L1684.75 2038.83L1684.75 2088.83L1641.44 2113.83L1598.14 2088.83L1598.14 2038.83zM1598.14 2088.83L1641.44 2113.83L1641.44 2163.83L1598.14 2188.83L1554.84 2163.83L1554.84 2113.83zM1641.44 2163.83L1684.75 2188.83L1684.75 2238.83L1641.44 2263.83L1598.14 2238.83L1598.14 2188.83zM1641.44 2313.83L1684.75 2338.83L1684.75 2388.83L1641.44 2413.83L1598.14 2388.83L1598.14 2338.83zM1684.75 -11.17L1728.05 13.83L1728.05 63.83L1684.75 88.83L1641.44 63.83L1641.44 13.83zM1684.75 138.83L1728.05 163.83L1728.05 213.83L1684.75 238.83L1641.44 213.83L1641.44 163.83zM1728.05 213.83L1771.35 238.83L1771.35 288.83L1728.05 313.83L1684.75 288.83L1684.75 238.83zM1684.75 288.83L1728.05 313.83L1728.05 363.83L1684.75 388.83L1641.44 363.83L1641.44 313.83zM1684.75 438.83L1728.05 463.83L1728.05 513.83L1684.75 538.83L1641.44 513.83L1641.44 463.83zM1728.05 513.83L1771.35 538.83L1771.35 588.83L1728.05 613.83L1684.75 588.83L1684.75 538.83zM1728.05 1113.83L1771.35 1138.83L1771.35 1188.83L1728.05 1213.83L1684.75 1188.83L1684.75 1138.83zM1728.05 1413.83L1771.35 1438.83L1771.35 1488.83L1728.05 1513.83L1684.75 1488.83L1684.75 1438.83zM1728.05 1563.83L1771.35 1588.83L1771.35 1638.83L1728.05 1663.83L1684.75 1638.83L1684.75 1588.83zM1728.05 1713.83L1771.35 1738.83L1771.35 1788.83L1728.05 1813.83L1684.75 1788.83L1684.75 1738.83zM1728.05 2163.83L1771.35 2188.83L1771.35 2238.83L1728.05 2263.83L1684.75 2238.83L1684.75 2188.83zM1684.75 2238.83L1728.05 2263.83L1728.05 2313.83L1684.75 2338.83L1641.44 2313.83L1641.44 2263.83zM1728.05 2313.83L1771.35 2338.83L1771.35 2388.83L1728.05 2413.83L1684.75 2388.83L1684.75 2338.83zM1684.75 2388.83L1728.05 2413.83L1728.05 2463.83L1684.75 2488.83L1641.44 2463.83L1641.44 2413.83zM1684.75 2838.83L1728.05 2863.83L1728.05 2913.83L1684.75 2938.83L1641.44 2913.83L1641.44 2863.83zM1728.05 2913.83L1771.35 2938.83L1771.35 2988.83L1728.05 3013.83L1684.75 2988.83L1684.75 2938.83zM1684.75 2988.83L1728.05 3013.83L1728.05 3063.83L1684.75 3088.83L1641.44 3063.83L1641.44 3013.83zM1771.35 -11.17L1814.65 13.83L1814.65 63.83L1771.35 88.83L1728.05 63.83L1728.05 13.83zM1814.65 63.83L1857.96 88.83L1857.96 138.83L1814.65 163.83L1771.35 138.83L1771.35 88.83zM1814.65 363.83L1857.96 388.83L1857.96 438.83L1814.65 463.83L1771.35 438.83L1771.35 388.83zM1814.65 813.83L1857.96 838.83L1857.96 888.83L1814.65 913.83L1771.35 888.83L1771.35 838.83zM1771.35 1038.83L1814.65 1063.83L1814.65 1113.83L1771.35 1138.83L1728.05 1113.83L1728.05 1063.83zM1814.65 1413.83L1857.96 1438.83L1857.96 1488.83L1814.65 1513.83L1771.35 1488.83L1771.35 1438.83zM1771.35 1488.83L1814.65 1513.83L1814.65 1563.83L1771.35 1588.83L1728.05 1563.83L1728.05 1513.83zM1771.35 1938.83L1814.65 1963.83L1814.65 2013.83L1771.35 2038.83L1728.05 2013.83L1728.05 1963.83zM1771.35 2088.83L1814.65 2113.83L1814.65 2163.83L1771.35 2188.83L1728.05 2163.83L1728.05 2113.83zM1814.65 2163.83L1857.96 2188.83L1857.96 2238.83L1814.65 2263.83L1771.35 2238.83L1771.35 2188.83zM1771.35 2238.83L1814.65 2263.83L1814.65 2313.83L1771.35 2338.83L1728.05 2313.83L1728.05 2263.83zM1771.35 2538.83L1814.65 2563.83L1814.65 2613.83L1771.35 2638.83L1728.05 2613.83L1728.05 2563.83zM1771.35 2838.83L1814.65 2863.83L1814.65 2913.83L1771.35 2938.83L1728.05 2913.83L1728.05 2863.83zM1771.35 3138.83L1814.65 3163.83L1814.65 3213.83L1771.35 3238.83L1728.05 3213.83L1728.05 3163.83zM1814.65 3213.83L1857.96 3238.83L1857.96 3288.83L1814.65 3313.83L1771.35 3288.83L1771.35 3238.83zM1901.26 213.83L1944.56 238.83L1944.56 288.83L1901.26 313.83L1857.96 288.83L1857.96 238.83zM1857.96 438.83L1901.26 463.83L1901.26 513.83L1857.96 538.83L1814.65 513.83L1814.65 463.83zM1901.26 813.83L1944.56 838.83L1944.56 888.83L1901.26 913.83L1857.96 888.83L1857.96 838.83zM1857.96 1488.83L1901.26 1513.83L1901.26 1563.83L1857.96 1588.83L1814.65 1563.83L1814.65 1513.83zM1857.96 2088.83L1901.26 2113.83L1901.26 2163.83L1857.96 2188.83L1814.65 2163.83L1814.65 2113.83zM1901.26 2163.83L1944.56 2188.83L1944.56 2238.83L1901.26 2263.83L1857.96 2238.83L1857.96 2188.83zM1857.96 2238.83L1901.26 2263.83L1901.26 2313.83L1857.96 2338.83L1814.65 2313.83L1814.65 2263.83zM1901.26 2763.83L1944.56 2788.83L1944.56 2838.83L1901.26 2863.83L1857.96 2838.83L1857.96 2788.83zM1944.56 288.83L1987.86 313.83L1987.86 363.83L1944.56 388.83L1901.26 363.83L1901.26 313.83zM1944.56 738.83L1987.86 763.83L1987.86 813.83L1944.56 838.83L1901.26 813.83L1901.26 763.83zM1987.86 813.83L2031.17 838.83L2031.17 888.83L1987.86 913.83L1944.56 888.83L1944.56 838.83zM1944.56 888.83L1987.86 913.83L1987.86 963.83L1944.56 988.83L1901.26 963.83L1901.26 913.83zM1987.86 963.83L2031.17 988.83L2031.17 1038.83L1987.86 1063.83L1944.56 1038.83L1944.56 988.83zM1944.56 1038.83L1987.86 1063.83L1987.86 1113.83L1944.56 1138.83L1901.26 1113.83L1901.26 1063.83zM1944.56 1488.83L1987.86 1513.83L1987.86 1563.83L1944.56 1588.83L1901.26 1563.83L1901.26 1513.83zM1944.56 2388.83L1987.86 2413.83L1987.86 2463.83L1944.56 2488.83L1901.26 2463.83L1901.26 2413.83zM1944.56 2538.83L1987.86 2563.83L1987.86 2613.83L1944.56 2638.83L1901.26 2613.83L1901.26 2563.83z" stroke="rgba(211, 78, 78, 1)" stroke-width="2"></path></g><defs><mask id="SvgjsMask1761"><rect width="1920" height="3240" fill="#ffffff"></rect></mask><linearGradient x1="-17.19%" y1="10.19%" x2="117.19%" y2="89.81%" gradientUnits="userSpaceOnUse" id="SvgjsLinearGradient1762"><stop stop-color="rgba(255, 247, 0, 1)" offset="0"></stop><stop stop-color="rgba(237, 148, 0, 1)" offset="1"></stop></linearGradient></defs></svg>